<svg width="657.8px" height="122px" xmlns="http://www.w3.org/2000/svg" viewBox="-78.88124999999997 14 657.7624999999999 122" style="background: rgba(0, 0, 0, 0)" preserveAspectRatio="xMidYMid"><defs><linearGradient id="editing-shiny-gradient" x1="0.04322727117869957" x2="0.9567727288213004" y1="0.2966316784620999" y2="0.7033683215379001" gradientUnits="objectBoundingBox"><stop offset="0" stop-color="#ffb200"></stop><stop offset="0.5" stop-color="#e10057"></stop><stop offset="1" stop-color="#5a1a80"></stop></linearGradient><linearGradient id="editing-shiny-gradient2" x1="0" x2="0" y1="0" y2="1"><stop offset="0.2" stop-color="#ffffff" stop-opacity="0.8"></stop><stop offset="0.8" stop-color="#ffffff" stop-opacity="0"></stop></linearGradient><filter id="editing-shiny2" x="-100%" y="-100%" width="300%" height="300%"><feMorphology operator="erode" radius="2"></feMorphology></filter><filter id="editing-shiny" x="-100%" y="-100%" width="300%" height="300%"><feFlood flood-color="#fff" result="flood"></feFlood><feConvolveMatrix in="SourceGraphic" result="conv" order="8,8" divisor="1" kernelMatrix="0 0 0 0 0 0 0 0 0 0 0 1 1 0 0 0 0 0 0 1 1 0 0 0 0 0 1 0 0 1 0 0 0 0 1 0 0 1 0 0 0 1 0 0 0 0 1 0 0 1 1 0 0 1 1 0 0 0 0 1 1 0 0 0 "></feConvolveMatrix><feOffset dx="0" dy="4" in="conv" result="offset"></feOffset><feComposite operator="in" in="flood" in2="offset" result="comp"></feComposite><feGaussianBlur in="offset" stdDeviation="3" result="shadow"></feGaussianBlur><feColorMatrix in="shadow" type="matrix" values="0.7 0 0 0 0  0 0.7 0 0 0  0 0 0.7 0 0  0 0 0 0.3 0" result="dark-shadow"></feColorMatrix><feOffset dx="0" dy="4" in="dark-shadow" result="offset-shadow"></feOffset><feOffset dx="0" dy="2" in="conv" result="offset-2"></feOffset><feComposite operator="out" in="offset" in2="offset-2" result="edge-diff"></feComposite><feGaussianBlur in="edge-diff" stdDeviation="1" result="edge-blur"></feGaussianBlur><feColorMatrix in="edge-blur" result="edge-shadow" type="matrix" values="0 0 0 0 0  0 0 0 0 0  0 0 0 0 0  0 0 0 0.5 0"></feColorMatrix><feComposite operator="in" in="edge-shadow" in2="offset" result="edge-shadow-in"></feComposite><feOffset dx="0" dy="1" in="edge-shadow-in" result="edge-shadow-final"></feOffset><feMerge result="out"><feMergeNode in="offset-shadow"></feMergeNode><feMergeNode in="comp"></feMergeNode><feMergeNode in="edge-shadow-final"></feMergeNode><feMergeNode in="SourceGraphic"></feMergeNode></feMerge></filter></defs><g filter="url(#editing-shiny)"><g transform="matrix(1.2,0,0,1.4,-32.5,160.9)"><path d="M 10.9 -47.1 L -3 -47.1 L 5.1 -89.3 L 19.2 -89.3 L 10.9 -47.1 Z M 66.7 -45.8 L 66.7 -45.8 L 66.7 -45.8 Q 58.9 -45.8 58.9 -51.8 L 58.9 -51.8 L 58.9 -51.8 Q 58.9 -54.5 60.1 -59.5 L 60.1 -59.5 L 60.1 -59.5 Q 61.2 -64.6 61.6 -66.7 L 61.6 -66.7 L 61.6 -66.7 Q 62.5 -71.4 62.5 -72.8 L 62.5 -72.8 L 62.5 -72.8 Q 62.5 -76.1 60 -76.1 L 60 -76.1 L 60 -76.1 Q 58.4 -76.1 56.9 -73.9 L 56.9 -73.9 L 56.9 -73.9 Q 55.4 -71.7 54.6 -67.3 L 54.6 -67.3 L 50.7 -47.1 L 38.2 -45.8 L 41.7 -63.2 L 41.7 -63.2 Q 42.2 -66.1 42.7 -69.4 L 42.7 -69.4 L 42.7 -69.4 Q 43.3 -72.6 43.3 -73.2 L 43.3 -73.2 L 43.3 -73.2 Q 43.3 -76.1 41.1 -76.1 L 41.1 -76.1 L 41.1 -76.1 Q 39.6 -76.1 38 -73.9 L 38 -73.9 L 38 -73.9 Q 36.4 -71.7 35.5 -67.3 L 35.5 -67.3 L 31.6 -47.1 L 19 -45.8 L 25.7 -79.7 L 36.1 -81 L 35.1 -74.6 L 35.1 -74.6 Q 36.7 -78 39.8 -79.5 L 39.8 -79.5 L 39.8 -79.5 Q 42.9 -81 47.7 -81 L 47.7 -81 L 47.7 -81 Q 50.4 -81 52.2 -79.7 L 52.2 -79.7 L 52.2 -79.7 Q 54 -78.3 54.6 -76.2 L 54.6 -76.2 L 54.6 -76.2 Q 55.7 -78.4 58.5 -79.7 L 58.5 -79.7 L 58.5 -79.7 Q 61.2 -81 64.7 -81 L 64.7 -81 L 64.7 -81 Q 68.1 -81 69.8 -80.3 L 69.8 -80.3 L 69.8 -80.3 Q 71.5 -79.6 72.5 -78.3 L 72.5 -78.3 L 72.5 -78.3 Q 74.2 -76.1 74.2 -72 L 74.2 -72 L 74.2 -72 Q 74.2 -68 72.5 -59.6 L 72.5 -59.6 L 72.5 -59.6 Q 71.6 -55.5 71.6 -54 L 71.6 -54 L 71.6 -54 Q 71.6 -52.5 72.5 -51.6 L 72.5 -51.6 L 72.5 -51.6 Q 73.3 -50.7 74.6 -50.6 L 74.6 -50.6 L 74.6 -50.6 Q 74 -48.4 71.8 -47.1 L 71.8 -47.1 L 71.8 -47.1 Q 69.6 -45.8 66.7 -45.8 Z M 82.3 -49 L 82.3 -49 L 82.3 -49 Q 80.8 -50.7 80.1 -53.3 L 80.1 -53.3 L 80.1 -53.3 Q 79.5 -55.9 79.5 -60.2 L 79.5 -60.2 L 79.5 -60.2 Q 79.5 -64.5 80.9 -68.4 L 80.9 -68.4 L 80.9 -68.4 Q 82.4 -72.3 85.1 -75.1 L 85.1 -75.1 L 85.1 -75.1 Q 90.6 -81 99.7 -81 L 99.7 -81 L 99.7 -81 Q 103 -81 105.3 -79.9 L 105.3 -79.9 L 116.3 -81 L 111.5 -56.1 L 111.5 -56.1 Q 111.4 -55.3 111.4 -53.9 L 111.4 -53.9 L 111.4 -53.9 Q 111.4 -52.5 112.2 -51.6 L 112.2 -51.6 L 112.2 -51.6 Q 113.1 -50.7 114.4 -50.6 L 114.4 -50.6 L 114.4 -50.6 Q 113.7 -48.4 111.4 -47.1 L 111.4 -47.1 L 111.4 -47.1 Q 109.1 -45.8 106.4 -45.8 L 106.4 -45.8 L 106.4 -45.8 Q 103.8 -45.8 102 -46.8 L 102 -46.8 L 102 -46.8 Q 100.3 -47.8 99.8 -49.5 L 99.8 -49.5 L 99.8 -49.5 Q 98.7 -47.9 96.6 -46.8 L 96.6 -46.8 L 96.6 -46.8 Q 94.4 -45.8 91.5 -45.8 L 91.5 -45.8 L 91.5 -45.8 Q 88.6 -45.8 86.2 -46.6 L 86.2 -46.6 L 86.2 -46.6 Q 83.8 -47.4 82.3 -49 Z M 95.8 -75 L 95.8 -75 L 95.8 -75 Q 95.1 -73.9 94.5 -71.9 L 94.5 -71.9 L 94.5 -71.9 Q 93.8 -70 92.8 -64.7 L 92.8 -64.7 L 92.8 -64.7 Q 91.7 -59.5 91.7 -55.8 L 91.7 -55.8 L 91.7 -55.8 Q 91.7 -52.1 92.3 -51 L 92.3 -51 L 92.3 -51 Q 92.9 -49.9 93.9 -49.9 L 93.9 -49.9 L 93.9 -49.9 Q 95.9 -49.9 97.4 -51.9 L 97.4 -51.9 L 97.4 -51.9 Q 98.9 -53.8 99.5 -57.3 L 99.5 -57.3 L 102.9 -76 L 102.9 -76 Q 101.6 -77.2 100 -77.2 L 100 -77.2 L 100 -77.2 Q 98.4 -77.2 97.5 -76.7 L 97.5 -76.7 L 97.5 -76.7 Q 96.6 -76.2 95.8 -75 Z M 124 -73.9 L 124 -73.9 L 124 -73.9 Q 126.2 -76.9 129.5 -79 L 129.5 -79 L 129.5 -79 Q 132.8 -81 136.8 -81 L 136.8 -81 L 136.8 -81 Q 140.9 -81 142.8 -79.7 L 142.8 -79.7 L 155.3 -81 L 151 -56.4 L 151 -56.4 Q 148.7 -43.9 144 -39 L 144 -39 L 144 -39 Q 139.4 -34.3 130.6 -34.3 L 130.6 -34.3 L 130.6 -34.3 Q 123.9 -34.3 120.1 -36.4 L 120.1 -36.4 L 120.1 -36.4 Q 116.2 -38.5 116.2 -42 L 116.2 -42 L 116.2 -42 Q 116.2 -44.7 118.2 -46.2 L 118.2 -46.2 L 118.2 -46.2 Q 120.2 -47.7 123.3 -47.7 L 123.3 -47.7 L 123.3 -47.7 Q 125.9 -47.7 128 -46.5 L 128 -46.5 L 128 -46.5 Q 129.2 -45.8 129.8 -44.9 L 129.8 -44.9 L 129.8 -44.9 Q 128.3 -43.6 128.3 -41.5 L 128.3 -41.5 L 128.3 -41.5 Q 128.3 -38.8 130.9 -38.8 L 130.9 -38.8 L 130.9 -38.8 Q 135.2 -38.8 137.6 -48.9 L 137.6 -48.9 L 137.6 -48.9 Q 138.3 -51.6 138.9 -54.4 L 138.9 -54.4 L 138.9 -54.4 Q 136 -50.9 129.5 -50.9 L 129.5 -50.9 L 129.5 -50.9 Q 124.9 -50.9 122.3 -53.1 L 122.3 -53.1 L 122.3 -53.1 Q 119.7 -55.2 119.7 -60.4 L 119.7 -60.4 L 119.7 -60.4 Q 119.7 -63.5 120.8 -67.2 L 120.8 -67.2 L 120.8 -67.2 Q 121.9 -70.8 124 -73.9 Z M 132.3 -60.2 L 132.3 -60.2 L 132.3 -60.2 Q 132.3 -55.8 134.6 -55.8 L 134.6 -55.8 L 134.6 -55.8 Q 136.1 -55.8 137.6 -57.5 L 137.6 -57.5 L 137.6 -57.5 Q 138.7 -58.8 139.2 -60.8 L 139.2 -60.8 L 142.5 -77.2 L 142.5 -77.2 Q 142.1 -77.3 141.8 -77.4 L 141.8 -77.4 L 141.8 -77.4 Q 141.2 -77.7 140.3 -77.7 L 140.3 -77.7 L 140.3 -77.7 Q 136.4 -77.7 134.1 -71.3 L 134.1 -71.3 L 134.1 -71.3 Q 132.3 -66.3 132.3 -60.2 Z M 183.7 -57.9 L 183.7 -57.9 L 183.7 -57.9 Q 185.3 -56.8 185.3 -54.4 L 185.3 -54.4 L 185.3 -54.4 Q 185.3 -52 184.1 -50.5 L 184.1 -50.5 L 184.1 -50.5 Q 182.9 -49 180.9 -47.9 L 180.9 -47.9 L 180.9 -47.9 Q 176.8 -45.8 172.4 -45.8 L 172.4 -45.8 L 172.4 -45.8 Q 168 -45.8 165.4 -46.8 L 165.4 -46.8 L 165.4 -46.8 Q 162.8 -47.7 161.1 -49.5 L 161.1 -49.5 L 161.1 -49.5 Q 157.7 -52.9 157.7 -59.1 L 157.7 -59.1 L 157.7 -59.1 Q 157.7 -68.8 162.9 -74.7 L 162.9 -74.7 L 162.9 -74.7 Q 168.6 -81 178.4 -81 L 178.4 -81 L 178.4 -81 Q 184.4 -81 187.4 -78.5 L 187.4 -78.5 L 187.4 -78.5 Q 189.7 -76.5 189.7 -73.4 L 189.7 -73.4 L 189.7 -73.4 Q 189.7 -62.1 170.2 -62.1 L 170.2 -62.1 L 170.2 -62.1 Q 170 -60.5 170 -59.1 L 170 -59.1 L 170 -59.1 Q 170 -56.1 171.3 -55 L 171.3 -55 L 171.3 -55 Q 172.6 -53.9 175 -53.9 L 175 -53.9 L 175 -53.9 Q 177.5 -53.9 180.1 -55 L 180.1 -55 L 180.1 -55 Q 182.7 -56.1 183.7 -57.9 Z M 170.7 -64.9 L 170.7 -64.9 L 170.7 -64.9 Q 175.2 -64.9 177.9 -67.7 L 177.9 -67.7 L 177.9 -67.7 Q 180.5 -70.4 180.5 -74.7 L 180.5 -74.7 L 180.5 -74.7 Q 180.5 -76.2 179.9 -77 L 179.9 -77 L 179.9 -77 Q 179.4 -77.8 178.3 -77.8 L 178.3 -77.8 L 178.3 -77.8 Q 177.2 -77.8 176.3 -77.3 L 176.3 -77.3 L 176.3 -77.3 Q 175.4 -76.9 174.4 -75.5 L 174.4 -75.5 L 174.4 -75.5 Q 172 -72.3 170.7 -64.9 Z M 211 -69.6 L 211 -69.6 L 211 -69.6 Q 211.9 -71.9 211.9 -74 L 211.9 -74 L 211.9 -74 Q 211.9 -77.8 208.8 -77.8 L 208.8 -77.8 L 208.8 -77.8 Q 207.2 -77.8 205.9 -76.3 L 205.9 -76.3 L 205.9 -76.3 Q 204.6 -74.9 204.6 -73.1 L 204.6 -73.1 L 204.6 -73.1 Q 204.6 -71.8 205.6 -70.8 L 205.6 -70.8 L 205.6 -70.8 Q 207.1 -69.4 210.9 -67.1 L 210.9 -67.1 L 210.9 -67.1 Q 214.7 -64.8 216.1 -62.9 L 216.1 -62.9 L 216.1 -62.9 Q 217.5 -61 217.5 -58.4 L 217.5 -58.4 L 217.5 -58.4 Q 217.5 -55.8 216.3 -53.4 L 216.3 -53.4 L 216.3 -53.4 Q 215 -51.1 212.8 -49.4 L 212.8 -49.4 L 212.8 -49.4 Q 208 -45.8 200.3 -45.8 L 200.3 -45.8 L 200.3 -45.8 Q 196.2 -45.8 192.9 -48 L 192.9 -48 L 192.9 -48 Q 189.8 -50.1 189.8 -52.6 L 189.8 -52.6 L 189.8 -52.6 Q 189.8 -55.1 191.6 -56.6 L 191.6 -56.6 L 191.6 -56.6 Q 193.4 -58 196.1 -58 L 196.1 -58 L 196.1 -58 Q 198.8 -58 200.4 -57 L 200.4 -57 L 200.4 -57 Q 199.6 -54.9 199.6 -53.5 L 199.6 -53.5 L 199.6 -53.5 Q 199.6 -49.3 203.2 -49.3 L 203.2 -49.3 L 203.2 -49.3 Q 204.7 -49.3 205.8 -50.2 L 205.8 -50.2 L 205.8 -50.2 Q 206.8 -51.2 206.8 -52.9 L 206.8 -52.9 L 206.8 -52.9 Q 206.8 -56.1 201.3 -59.6 L 201.3 -59.6 L 201.3 -59.6 Q 196.8 -62.5 195.8 -63.7 L 195.8 -63.7 L 195.8 -63.7 Q 194 -65.7 194 -68.3 L 194 -68.3 L 194 -68.3 Q 194 -70.8 195.3 -73.3 L 195.3 -73.3 L 195.3 -73.3 Q 196.5 -75.7 198.7 -77.4 L 198.7 -77.4 L 198.7 -77.4 Q 203.4 -81 211.5 -81 L 211.5 -81 L 211.5 -81 Q 215.7 -81 218.1 -79.4 L 218.1 -79.4 L 218.1 -79.4 Q 220.6 -77.7 220.6 -74.9 L 220.6 -74.9 L 220.6 -74.9 Q 220.6 -72.1 218.9 -70.5 L 218.9 -70.5 L 218.9 -70.5 Q 217.2 -68.9 214.1 -68.9 L 214.1 -68.9 L 214.1 -68.9 Q 212 -68.9 211 -69.6 Z M 262.1 -67.7 L 275 -68.9 L 275 -68.9 Q 270.4 -58.8 270.4 -47 L 270.4 -47 L 270.4 -47 Q 268.7 -45.8 266.1 -45.8 L 266.1 -45.8 L 266.1 -45.8 Q 263.6 -45.8 262 -47 L 262 -47 L 262 -47 Q 260.4 -48.2 260.1 -49.4 L 260.1 -49.4 L 260.1 -49.4 Q 258.5 -47.7 255.9 -46.8 L 255.9 -46.8 L 255.9 -46.8 Q 253.3 -45.8 250.5 -45.8 L 250.5 -45.8 L 250.5 -45.8 Q 247.8 -45.8 245.4 -46.7 L 245.4 -46.7 L 245.4 -46.7 Q 243 -47.6 241.1 -49.6 L 241.1 -49.6 L 241.1 -49.6 Q 237 -53.9 237 -62.2 L 237 -62.2 L 237 -62.2 Q 237 -75 243.9 -82.7 L 243.9 -82.7 L 243.9 -82.7 Q 250.9 -90.6 263.4 -90.6 L 263.4 -90.6 L 263.4 -90.6 Q 272.1 -90.6 275.1 -86.1 L 275.1 -86.1 L 275.1 -86.1 Q 276.1 -84.7 276.1 -83 L 276.1 -83 L 276.1 -83 Q 276.1 -81.3 275.4 -79.9 L 275.4 -79.9 L 275.4 -79.9 Q 274.6 -78.5 273.5 -77.3 L 273.5 -77.3 L 273.5 -77.3 Q 270.7 -74.7 267.3 -74.7 L 267.3 -74.7 L 267.3 -74.7 Q 266 -74.7 264.7 -75.2 L 264.7 -75.2 L 264.7 -75.2 Q 265 -77.1 265 -79.4 L 265 -79.4 L 265 -79.4 Q 265 -81.6 264.8 -82.6 L 264.8 -82.6 L 264.8 -82.6 Q 264.6 -83.6 264.2 -84.5 L 264.2 -84.5 L 264.2 -84.5 Q 263.4 -86.2 261.6 -86.2 L 261.6 -86.2 L 261.6 -86.2 Q 259.8 -86.2 257.7 -84.2 L 257.7 -84.2 L 257.7 -84.2 Q 255.7 -82.3 254.1 -79.1 L 254.1 -79.1 L 254.1 -79.1 Q 250.6 -71.9 250.6 -63.3 L 250.6 -63.3 L 250.6 -63.3 Q 250.6 -59.3 252.2 -56.5 L 252.2 -56.5 L 252.2 -56.5 Q 253.8 -53.4 256.8 -53.4 L 256.8 -53.4 L 256.8 -53.4 Q 257.8 -53.4 258.7 -53.9 L 258.7 -53.9 L 258.7 -53.9 Q 259.6 -54.5 260 -54.8 L 260 -54.8 L 262.1 -67.7 Z M 280.9 -49 L 280.9 -49 L 280.9 -49 Q 279.4 -50.7 278.7 -53.3 L 278.7 -53.3 L 278.7 -53.3 Q 278.1 -55.9 278.1 -60.2 L 278.1 -60.2 L 278.1 -60.2 Q 278.1 -64.5 279.5 -68.4 L 279.5 -68.4 L 279.5 -68.4 Q 281 -72.3 283.7 -75.1 L 283.7 -75.1 L 283.7 -75.1 Q 289.2 -81 298.3 -81 L 298.3 -81 L 298.3 -81 Q 301.6 -81 303.9 -79.9 L 303.9 -79.9 L 314.9 -81 L 310.1 -56.1 L 310.1 -56.1 Q 309.9 -55.3 309.9 -53.9 L 309.9 -53.9 L 309.9 -53.9 Q 309.9 -52.5 310.8 -51.6 L 310.8 -51.6 L 310.8 -51.6 Q 311.7 -50.7 313 -50.6 L 313 -50.6 L 313 -50.6 Q 312.3 -48.4 310 -47.1 L 310 -47.1 L 310 -47.1 Q 307.6 -45.8 305 -45.8 L 305 -45.8 L 305 -45.8 Q 302.4 -45.8 300.6 -46.8 L 300.6 -46.8 L 300.6 -46.8 Q 298.9 -47.8 298.4 -49.5 L 298.4 -49.5 L 298.4 -49.5 Q 297.3 -47.9 295.2 -46.8 L 295.2 -46.8 L 295.2 -46.8 Q 293 -45.8 290.1 -45.8 L 290.1 -45.8 L 290.1 -45.8 Q 287.2 -45.8 284.8 -46.6 L 284.8 -46.6 L 284.8 -46.6 Q 282.4 -47.4 280.9 -49 Z M 294.4 -75 L 294.4 -75 L 294.4 -75 Q 293.7 -73.9 293 -71.9 L 293 -71.9 L 293 -71.9 Q 292.4 -70 291.4 -64.7 L 291.4 -64.7 L 291.4 -64.7 Q 290.3 -59.5 290.3 -55.8 L 290.3 -55.8 L 290.3 -55.8 Q 290.3 -52.1 290.9 -51 L 290.9 -51 L 290.9 -51 Q 291.5 -49.9 292.5 -49.9 L 292.5 -49.9 L 292.5 -49.9 Q 294.5 -49.9 296 -51.9 L 296 -51.9 L 296 -51.9 Q 297.5 -53.8 298.1 -57.3 L 298.1 -57.3 L 301.5 -76 L 301.5 -76 Q 300.2 -77.2 298.6 -77.2 L 298.6 -77.2 L 298.6 -77.2 Q 297 -77.2 296.1 -76.7 L 296.1 -76.7 L 296.1 -76.7 Q 295.2 -76.2 294.4 -75 Z M 333.6 -50.6 L 333.6 -50.6 L 333.6 -50.6 Q 331.6 -45.8 325.3 -45.8 L 325.3 -45.8 L 325.3 -45.8 Q 322.1 -45.8 320.1 -48.1 L 320.1 -48.1 L 320.1 -48.1 Q 318.4 -49.9 318.4 -52 L 318.4 -52 L 318.4 -52 Q 318.4 -56.8 320.6 -67.3 L 320.6 -67.3 L 325.3 -91.9 L 338.3 -93.2 L 332.1 -60.8 L 332.1 -60.8 Q 331 -56.1 331 -54.4 L 331 -54.4 L 331 -54.4 Q 331 -50.7 333.6 -50.6 Z M 354.4 -50.6 L 354.4 -50.6 L 354.4 -50.6 Q 352.4 -45.8 346 -45.8 L 346 -45.8 L 346 -45.8 Q 342.8 -45.8 340.8 -48.1 L 340.8 -48.1 L 340.8 -48.1 Q 339.1 -49.9 339.1 -52 L 339.1 -52 L 339.1 -52 Q 339.1 -56.8 341.4 -67.3 L 341.4 -67.3 L 346 -91.9 L 359 -93.2 L 352.8 -60.8 L 352.8 -60.8 Q 351.7 -56.1 351.7 -54.4 L 351.7 -54.4 L 351.7 -54.4 Q 351.7 -50.7 354.4 -50.6 Z M 385.7 -57.9 L 385.7 -57.9 L 385.7 -57.9 Q 387.3 -56.8 387.3 -54.4 L 387.3 -54.4 L 387.3 -54.4 Q 387.3 -52 386.1 -50.5 L 386.1 -50.5 L 386.1 -50.5 Q 384.9 -49 382.9 -47.9 L 382.9 -47.9 L 382.9 -47.9 Q 378.8 -45.8 374.4 -45.8 L 374.4 -45.8 L 374.4 -45.8 Q 370 -45.8 367.4 -46.8 L 367.4 -46.8 L 367.4 -46.8 Q 364.8 -47.7 363.1 -49.5 L 363.1 -49.5 L 363.1 -49.5 Q 359.7 -52.9 359.7 -59.1 L 359.7 -59.1 L 359.7 -59.1 Q 359.7 -68.8 364.9 -74.7 L 364.9 -74.7 L 364.9 -74.7 Q 370.5 -81 380.3 -81 L 380.3 -81 L 380.3 -81 Q 386.4 -81 389.4 -78.5 L 389.4 -78.5 L 389.4 -78.5 Q 391.7 -76.5 391.7 -73.4 L 391.7 -73.4 L 391.7 -73.4 Q 391.7 -62.1 372.2 -62.1 L 372.2 -62.1 L 372.2 -62.1 Q 372 -60.5 372 -59.1 L 372 -59.1 L 372 -59.1 Q 372 -56.1 373.3 -55 L 373.3 -55 L 373.3 -55 Q 374.6 -53.9 377 -53.9 L 377 -53.9 L 377 -53.9 Q 379.5 -53.9 382 -55 L 382 -55 L 382 -55 Q 384.6 -56.1 385.7 -57.9 Z M 372.7 -64.9 L 372.7 -64.9 L 372.7 -64.9 Q 377.2 -64.9 379.8 -67.7 L 379.8 -67.7 L 379.8 -67.7 Q 382.5 -70.4 382.5 -74.7 L 382.5 -74.7 L 382.5 -74.7 Q 382.5 -76.2 381.9 -77 L 381.9 -77 L 381.9 -77 Q 381.4 -77.8 380.3 -77.8 L 380.3 -77.8 L 380.3 -77.8 Q 379.2 -77.8 378.3 -77.3 L 378.3 -77.3 L 378.3 -77.3 Q 377.3 -76.9 376.4 -75.5 L 376.4 -75.5 L 376.4 -75.5 Q 374 -72.3 372.7 -64.9 Z M 413.9 -65.1 L 413.9 -65.1 L 413.9 -65.1 Q 416.2 -69.2 416.2 -73.3 L 416.2 -73.3 L 416.2 -73.3 Q 416.2 -76.1 414.2 -76.1 L 414.2 -76.1 L 414.2 -76.1 Q 412.7 -76.1 411.1 -73.5 L 411.1 -73.5 L 411.1 -73.5 Q 409.4 -70.8 408.9 -67.5 L 408.9 -67.5 L 405.6 -47.1 L 392.3 -45.8 L 398.8 -79.7 L 409.4 -81 L 408.2 -74.6 L 408.2 -74.6 Q 411.4 -81 418.4 -81 L 418.4 -81 L 418.4 -81 Q 422.1 -81 424.2 -79.1 L 424.2 -79.1 L 424.2 -79.1 Q 426.2 -77.2 426.2 -73.2 L 426.2 -73.2 L 426.2 -73.2 Q 426.2 -69.3 423.6 -66.8 L 423.6 -66.8 L 423.6 -66.8 Q 421 -64.3 416.6 -64.3 L 416.6 -64.3 L 416.6 -64.3 Q 414.7 -64.3 413.9 -65.1 Z M 447.5 -54.3 L 447.5 -54.3 L 447.5 -54.3 Q 444.2 -50.9 438.1 -50.9 L 438.1 -50.9 L 438.1 -50.9 Q 430.5 -50.9 428.9 -56.4 L 428.9 -56.4 L 428.9 -56.4 Q 428.4 -58.1 428.4 -60 L 428.4 -60 L 428.4 -60 Q 428.4 -61.8 428.8 -63.7 L 428.8 -63.7 L 431.8 -79.7 L 444.8 -81 L 441.3 -62.4 L 441.3 -62.4 Q 441.1 -61.6 441 -60.7 L 441 -60.7 L 441 -60.7 Q 440.8 -59.8 440.8 -58.8 L 440.8 -58.8 L 440.8 -58.8 Q 440.8 -57.9 441.1 -57.3 L 441.1 -57.3 L 441.1 -57.3 Q 441.4 -56.7 441.9 -56.3 L 441.9 -56.3 L 441.9 -56.3 Q 442.6 -55.8 444 -55.8 L 444 -55.8 L 444 -55.8 Q 445.4 -55.8 446.5 -57.5 L 446.5 -57.5 L 446.5 -57.5 Q 447.7 -59.1 448.3 -62 L 448.3 -62 L 451.8 -79.7 L 464.4 -81 L 459.6 -55.9 L 459.6 -55.9 Q 457.3 -43.6 452.4 -38.7 L 452.4 -38.7 L 452.4 -38.7 Q 449.9 -36.2 446.7 -35.2 L 446.7 -35.2 L 446.7 -35.2 Q 443.5 -34.2 439.3 -34.2 L 439.3 -34.2 L 439.3 -34.2 Q 432.6 -34.2 428.7 -36.3 L 428.7 -36.3 L 428.7 -36.3 Q 424.9 -38.5 424.9 -42 L 424.9 -42 L 424.9 -42 Q 424.9 -44.6 426.9 -46.1 L 426.9 -46.1 L 426.9 -46.1 Q 428.9 -47.6 431.9 -47.6 L 431.9 -47.6 L 431.9 -47.6 Q 434.6 -47.6 436.7 -46.5 L 436.7 -46.5 L 436.7 -46.5 Q 437.9 -45.8 438.5 -44.9 L 438.5 -44.9 L 438.5 -44.9 Q 437 -43.6 437 -41.5 L 437 -41.5 L 437 -41.5 Q 437 -38.7 439.5 -38.7 L 439.5 -38.7 L 439.5 -38.7 Q 443.8 -38.7 446.2 -48.4 L 446.2 -48.4 L 446.2 -48.4 Q 446.9 -51.3 447.5 -54.3 Z" fill="url(#editing-shiny-gradient)"></path></g></g><style>    text {
  font-size: 64px;
  font-family: Arial Black;
  dominant-baseline: central;
  text-anchor: middle;
}</style>
</svg>